<svg xmlns="http://www.w3.org/2000/svg" xmlns:xlink="http://www.w3.org/1999/xlink" width="200" height="65" viewBox="0 0 200 65">
  <defs>
    <linearGradient id="linear-gradient" x1="-163.622" y1="-157.91" x2="-161.226" y2="-157.91" gradientUnits="objectBoundingBox">
      <stop offset="0" stop-color="#fff"/>
      <stop offset="0.038" stop-color="#fcebe1"/>
      <stop offset="0.12" stop-color="#f6b894"/>
      <stop offset="0.239" stop-color="#ec681b"/>
      <stop offset="0.247" stop-color="#ec6313"/>
      <stop offset="1" stop-color="#f06212"/>
    </linearGradient>
    <linearGradient id="linear-gradient-2" x1="-199.56" y1="-168.265" x2="-196.83" y2="-168.265" gradientUnits="objectBoundingBox">
      <stop offset="0" stop-color="#fff"/>
      <stop offset="0.116" stop-color="#fcddc7"/>
      <stop offset="0.231" stop-color="#fabf97"/>
      <stop offset="0.351" stop-color="#f8a66e"/>
      <stop offset="0.472" stop-color="#f6924d"/>
      <stop offset="0.596" stop-color="#f58233"/>
      <stop offset="0.723" stop-color="#f47620"/>
      <stop offset="0.855" stop-color="#f47015"/>
      <stop offset="1" stop-color="#f46e12"/>
    </linearGradient>
  </defs>
  <g id="Group_13341" data-name="Group 13341" transform="translate(0 -123)">
    <g id="Group_2812" data-name="Group 2812" transform="translate(-401 -1971.001)">
      <g id="Group_2778" data-name="Group 2778" transform="translate(434 2096.001)">
        <path id="Path_8326" data-name="Path 8326" d="M376.412,542.827h1.639V541.15h1.686l-.081-1.212h1.784a11.182,11.182,0,0,1,8.959,6c.221-.427.5-.932.5-.932l1.866-6.034s.425-.826,1.189-.523a.931.931,0,0,1,.575,1.173c-.056.16-.558,1.729-.558,1.729s1.209-.786,1.589-1.025c.707.042,3.021,0,3.021,0v1.178h1.793v1.568h1.5v16.155s-2.516-2.409-7.769-1.171c-.531.131-1.091.393-1.682.6a4.961,4.961,0,0,1-1.331.393l-5.2-.5a12.183,12.183,0,0,0-5.58-.692,7.833,7.833,0,0,0-3.9,1.369C376.35,546.634,376.412,542.827,376.412,542.827Z" transform="translate(-368.233 -532.562)" fill="#fff"/>
        <g id="Group_2770" data-name="Group 2770" transform="translate(41.911)">
          <g id="Group_2766" data-name="Group 2766" transform="translate(0.112 0.293)">
            <path id="Path_8327" data-name="Path 8327" d="M421.5,545.522s.441,3.975-1.765,5-5.812-.223-6.474-1.986.368-4.781,4.486-6.546,10.151-4.268,12.355,2.646.626,12.283-8.512,14.342-16.053-1.029-18.994-5.3c.293-2.5,3.162-7.575,3.9-7.724,2.427,3.313,7.8,8.828,15.078,8.461s5.883-7.577,4.339-9.344S422.753,543.833,421.5,545.522Z" transform="translate(-400.689 -532.243)" fill="#1a1718"/>
            <path id="Path_8328" data-name="Path 8328" d="M431.742,543.147l-8.881-.1a11.92,11.92,0,0,0-1.877-2.319c2.494.037,9.365,0,9.365,0S430.717,542.6,431.742,543.147Z" transform="translate(-393.981 -532.001)" fill="#1a1718"/>
            <path id="Path_8329" data-name="Path 8329" d="M401.2,540.79v2.421h14.68a9.158,9.158,0,0,1,1.217-.819,27.534,27.534,0,0,1,4.264-1.795c-12.954-.105-20.161,0-20.161,0Z" transform="translate(-401.2 -532.066)" fill="#1a1718"/>
            <path id="Path_8330" data-name="Path 8330" d="M431.99,539.392a2.518,2.518,0,0,0,2.552,2.353,3.1,3.1,0,0,0,2.352-5.05c-1.763-2.206-3.284-2.6-5.2-.786s-8.471,8.591.55,10.455a51.834,51.834,0,0,1,4.991-3.7c-3.628,1.485-6.767,1.946-7.5,0S431.99,539.392,431.99,539.392Z" transform="translate(-391.566 -534.177)" fill="#1a1718"/>
            <path id="Path_8331" data-name="Path 8331" d="M442.552,544.047l-.042-.291-.789-4.772c-.041,0-.041,0-.082.041a17.492,17.492,0,0,0-4.275,2.117c-.332.207-.622.415-.913.622-.457.291-.913.622-1.369.954-.955.665-1.869,1.411-2.7,2.117a26.4,26.4,0,0,0-3.238,3.154,8.977,8.977,0,0,0-1.619,7.594,1.854,1.854,0,0,0,.25.665c.663,1.619,2.158,2.9,4.855,3.279,7.222.954,9.38-.457,11.995-3.03Zm-4.11,2.282v.126a6.936,6.936,0,0,1,.333,1,.318.318,0,0,0,.041.167q.186.622.374,1.37a.381.381,0,0,0,.041.208,13.291,13.291,0,0,1,.5,5.021c-2.9,2.49-6.184,1.2-6.931-.706a2.064,2.064,0,0,1-.124-.291,1.783,1.783,0,0,1-.042-1.037c.624-2.532,4.234-5.977,5.686-6.184C438.318,546,438.361,546.122,438.442,546.329Z" transform="translate(-391.694 -532.637)" fill="#1a1718"/>
            <path id="Path_8332" data-name="Path 8332" d="M439.473,538.973l.85,5.071s2.9-.85,4.373,0c-3.437-.214-2.135,4.672,0,9.822s-2.7,12.358-11.329,11.841l6.325,5.443s9.047-3.621,9.784-11.112-.984-7.32-3.532-11.835c-1.175-2.132,1.4-4.634,1.62-4.709A9.541,9.541,0,0,0,439.473,538.973Z" transform="translate(-389.462 -532.641)" fill="#1a1718"/>
            <g id="Group_2764" data-name="Group 2764" transform="translate(59.676 7.596)">
              <path id="Path_8333" data-name="Path 8333" d="M462.763,564.116c-.057-.994-.471-15.482-.471-21.378v-2.449s-1.247-.164-3.426-.33V561.1a7.279,7.279,0,0,0-5.663-3.382c-.147-.662.161-.736.741-1.25s3.378-3.456,2.715-4.485a32.711,32.711,0,0,0-6.178-5.517c2.722-1.84,8.017-1.766,8.017-1.766l.363-4.742a26.062,26.062,0,0,0-10.219,1.433c-3.31,1.544-5.148,2.722-2.353,5.516s5.958,4.706,5.442,5.517a28.778,28.778,0,0,1-4.855,4.78c-.587.441-.661.883-.292,1.324s.955,1.25,1.47,1.912,1.1.809,1.471.588,6.178-1.839,9.193,2.574c.588,1.25-.147,4.78,2.427,4.411S462.837,565.368,462.763,564.116Z" transform="translate(-444.921 -539.899)" fill="#1a1718"/>
              <path id="Path_8334" data-name="Path 8334" d="M455.139,539.9l0,.06h0Z" transform="translate(-441.194 -539.899)" fill="#1a1718"/>
            </g>
            <path id="Path_8335" data-name="Path 8335" d="M462.533,555.924s3.163-.588,1.617,2.941c.221,1.25-.808,1.986-1.1,2.869a1.7,1.7,0,0,1-3.015,0c-.736-1.545-1.986-3.748,0-7.867s4.265-7.391,7.354-3.512,3.531,6.3,3.457,7.7c-.074-11.914.007-15.448.007-15.448h-13.2v-2.424h15.7v25.226s0,2.379-2.121,2.445c-1.147.036-2.177-.36-2.29-1.563-.3-3.083-.369-11.767-4.781-12.8C463.193,554.011,462.385,555.409,462.533,555.924Z" transform="translate(-380.602 -532.199)" fill="#1a1718"/>
            <path id="Path_8336" data-name="Path 8336" d="M454.2,560.272a3.383,3.383,0,1,1-3.384-3.384A3.385,3.385,0,0,1,454.2,560.272Z" transform="translate(-384.329 -526.104)" fill="#1a1718"/>
            <g id="Group_2765" data-name="Group 2765" transform="translate(73.473 7.596)">
              <path id="Path_8337" data-name="Path 8337" d="M455.03,563.587c.588,1.25-.147,4.78,2.427,4.411s1.691-2.646,1.617-3.9c-.057-.994-.471-15.482-.471-21.376v-2.45s-1.247-.164-3.426-.332v21.142Z" transform="translate(-455.03 -539.883)" fill="#1a1718"/>
              <path id="Path_8338" data-name="Path 8338" d="M455.139,539.9l0,.06h0Z" transform="translate(-454.992 -539.899)" fill="#1a1718"/>
            </g>
            <path id="Path_8339" data-name="Path 8339" d="M422.632,556.813a11.226,11.226,0,0,1-1.422,1.465c.857.811,2.4,3.532,3.722,9.341.665,3.163,4.047,2.133,4.2.444s.661-30.966.661-32.216,0-2.279-1.693-.736-4.531,3.678-2.6,5.663c.506.811.317,9.122.317,9.122l-.317,12.65S424.888,557.918,422.632,556.813Z" transform="translate(-393.898 -534.334)" fill="#1a1718"/>
          </g>
          <g id="Group_2769" data-name="Group 2769">
            <path id="Path_8340" data-name="Path 8340" d="M421.42,545.308s.442,3.973-1.763,5-5.81-.22-6.474-1.985.37-4.783,4.486-6.546,10.149-4.268,12.357,2.645.625,12.286-8.513,14.344-16.051-1.031-18.993-5.3c.293-2.5,3.161-7.577,3.9-7.721,2.427,3.31,7.8,8.826,15.078,8.457s5.881-7.577,4.338-9.343S422.671,543.618,421.42,545.308Z" transform="translate(-400.606 -532.029)" fill="#ec421c"/>
            <path id="Path_8341" data-name="Path 8341" d="M431.661,542.933l-8.879-.1a12.1,12.1,0,0,0-1.879-2.322c2.495.038,9.365,0,9.365,0S430.636,542.386,431.661,542.933Z" transform="translate(-393.898 -531.787)" fill="#001d31"/>
            <path id="Path_8342" data-name="Path 8342" d="M401.118,540.572V543H415.8a9.162,9.162,0,0,1,1.217-.819,27.437,27.437,0,0,1,4.265-1.795c-12.956-.108-20.164,0-20.164,0Z" transform="translate(-401.118 -531.851)" fill="#001d31"/>
            <path id="Path_8343" data-name="Path 8343" d="M431.911,539.178a2.516,2.516,0,0,0,2.55,2.352,3.1,3.1,0,0,0,2.353-5.052c-1.765-2.2-3.284-2.6-5.2-.783s-8.472,8.592.549,10.454a51.483,51.483,0,0,1,4.991-3.7c-3.628,1.484-6.767,1.946-7.5,0S431.911,539.178,431.911,539.178Z" transform="translate(-391.483 -533.963)" fill="#008caa"/>
            <path id="Path_8344" data-name="Path 8344" d="M442.505,543.834h-.042l-.787-4.731-.042-.332a19.888,19.888,0,0,0-4.482,2.2c-.373.291-.747.539-1.121.789h-.041c-1.245.913-2.532,1.867-3.693,2.864a1.078,1.078,0,0,0-.25.207,22.359,22.359,0,0,0-2.988,2.947,8.406,8.406,0,0,0-1.784,4.482,4.079,4.079,0,0,0-.126,1v.248a7.574,7.574,0,0,0,.083.913v.041a4.023,4.023,0,0,0,.332,1.2,1.853,1.853,0,0,0,.25.665,5.765,5.765,0,0,0,4.773,2.988c7.179.954,9.337-.457,11.993-3.03Zm-9.795,9.463a1.831,1.831,0,0,1-.124-1.328c.58-2.532,4.192-5.977,5.644-6.184a2.309,2.309,0,0,0,.124.291s.042.124.124.332v.126a6.932,6.932,0,0,1,.333,1,.317.317,0,0,0,.041.166q.186.622.374,1.37a.38.38,0,0,0,.041.207,12.578,12.578,0,0,1,.374,4.731c-2.739,2.324-5.853,1.328-6.807-.415A2.064,2.064,0,0,1,432.711,553.3Z" transform="translate(-391.619 -532.421)" fill="#008caa"/>
            <path id="Path_8345" data-name="Path 8345" d="M439.392,538.758l.85,5.071s2.9-.852,4.372,0c-3.435-.216-2.135,4.673,0,9.82s-2.7,12.358-11.326,11.842l6.324,5.44s9.048-3.62,9.784-11.113-.981-7.316-3.53-11.832c-1.178-2.132,1.395-4.634,1.617-4.709C446.084,541.368,443.952,538.844,439.392,538.758Z" transform="translate(-389.379 -532.426)" fill="#001d31"/>
            <g id="Group_2767" data-name="Group 2767" transform="translate(59.677 7.593)">
              <path id="Path_8346" data-name="Path 8346" d="M462.682,563.9c-.057-.994-.472-15.481-.472-21.377v-2.453s-1.246-.161-3.425-.329v21.144a7.279,7.279,0,0,0-5.663-3.382c-.146-.663.16-.734.743-1.252s3.375-3.455,2.714-4.485a32.754,32.754,0,0,0-6.178-5.517c2.722-1.839,8.018-1.766,8.018-1.766l.363-4.742a26.145,26.145,0,0,0-10.22,1.432c-3.307,1.545-5.147,2.723-2.352,5.517s5.956,4.709,5.442,5.517a28.863,28.863,0,0,1-4.854,4.78c-.588.442-.662.883-.293,1.325s.955,1.249,1.47,1.911,1.1.81,1.47.588,6.179-1.839,9.2,2.574c.588,1.249-.149,4.78,2.425,4.413S462.755,565.153,462.682,563.9Z" transform="translate(-444.84 -539.682)" fill="#ec421c"/>
              <path id="Path_8347" data-name="Path 8347" d="M455.058,539.682l0,.061h0Z" transform="translate(-441.113 -539.682)" fill="#1a1718"/>
            </g>
            <path id="Path_8348" data-name="Path 8348" d="M462.454,555.709s3.161-.588,1.616,2.941c.22,1.249-.809,1.984-1.1,2.868a1.7,1.7,0,0,1-3.015,0c-.736-1.544-1.986-3.745,0-7.867s4.267-7.391,7.354-3.512,3.53,6.3,3.457,7.7c-.074-11.916.008-15.447.008-15.447H457.566v-2.427h15.7V565.2s0,2.379-2.122,2.446c-1.144.036-2.176-.362-2.289-1.564-.3-3.081-.368-11.765-4.783-12.795C463.114,553.8,462.306,555.193,462.454,555.709Z" transform="translate(-380.52 -531.985)" fill="#008caa"/>
            <path id="Path_8349" data-name="Path 8349" d="M454.12,560.055a3.384,3.384,0,1,1-3.385-3.382A3.385,3.385,0,0,1,454.12,560.055Z" transform="translate(-384.247 -525.889)" fill="#ec421c"/>
            <g id="Group_2768" data-name="Group 2768" transform="translate(73.476 7.593)">
              <path id="Path_8350" data-name="Path 8350" d="M454.95,563.372c.588,1.248-.149,4.781,2.425,4.411s1.691-2.647,1.617-3.9c-.057-.991-.472-15.481-.472-21.377v-2.453s-1.246-.16-3.425-.328V560.87Z" transform="translate(-454.95 -539.665)" fill="#008caa"/>
              <path id="Path_8351" data-name="Path 8351" d="M455.058,539.682l0,.061,0,0Z" transform="translate(-454.912 -539.682)" fill="#004c9a"/>
            </g>
            <path id="Path_8352" data-name="Path 8352" d="M422.551,556.595a11.237,11.237,0,0,1-1.422,1.465c.856.812,2.4,3.534,3.725,9.344.662,3.162,4.044,2.135,4.192.441s.662-30.963.662-32.213,0-2.279-1.691-.736-4.534,3.677-2.6,5.663c.508.811.318,9.12.318,9.12l-.318,12.65S424.809,557.7,422.551,556.595Z" transform="translate(-393.816 -534.119)" fill="#008caa"/>
          </g>
        </g>
        <path id="Path_8353" data-name="Path 8353" d="M374.053,556.759a13.228,13.228,0,0,0,4.387-1.462c1.926-1.141,4.029-2.888,6.24-2.14s4.387.5,5.705.749,3.781.393-.677,2.069c-1.747.356-4.314.142-4.351.392s1.926.5,3.71.392,3.281-.319,3.779-2.211a17.408,17.408,0,0,1,4.637-1.391c1.5-.248,3.1.2.785,1.724-.98.644-2.253,1.069-3.71,1.843-1.987,1.056-4.293,2.367-6.453,2.14,0,0-4.6-.626-6.812.026a18.282,18.282,0,0,0-3.482,1.366A35.836,35.836,0,0,1,374.053,556.759Z" transform="translate(-369.084 -527.238)" fill="#ec421c"/>
        <path id="Path_8354" data-name="Path 8354" d="M385.9,557.366s-5.2-2.1-9.481.677c-.143-15.976,0-16.4,0-16.4h1.212v14.479A8.855,8.855,0,0,1,385.9,557.366Z" transform="translate(-368.242 -531.374)" fill="#001d31"/>
        <path id="Path_8355" data-name="Path 8355" d="M385.844,557.921a9.467,9.467,0,0,0-8.239-2.247V540.411h1.213v13.41S383.562,553.857,385.844,557.921Z" transform="translate(-367.787 -531.823)" fill="#7f8284"/>
        <path id="Path_8356" data-name="Path 8356" d="M385.892,558.245s-2.616-4.388-6.931-4.707c-.108-13.551-.179-14.015-.179-14.015h1.784V552.5S382.945,552.148,385.892,558.245Z" transform="translate(-367.358 -532.147)" fill="#ec421c"/>
        <path id="Path_8357" data-name="Path 8357" d="M385.415,558.245s-2.711-5.67-5.326-5.741V539.523a11.241,11.241,0,0,1,8.8,5.492C386.032,550.293,384.94,555.214,385.415,558.245Z" transform="translate(-366.881 -532.147)" fill="#fff"/>
        <path id="Path_8358" data-name="Path 8358" d="M387.378,558.534s.272-.6.741-1.421c.939-1.641,2.672-4.179,4.645-4.678.106-6.883,0-12.625,0-12.625S387.307,543.8,387.378,558.534Z" transform="translate(-364.221 -532.042)" fill="#fff"/>
        <path id="Path_8359" data-name="Path 8359" d="M387.921,557.113s3.018-3.466,6.452-3.536c.011-8.63,0-13.766,0-13.766h-1.807v12.625A10.446,10.446,0,0,0,387.921,557.113Z" transform="translate(-364.023 -532.042)" fill="#ec421c"/>
        <path id="Path_8360" data-name="Path 8360" d="M387.744,557.826s2.924-4.065,7.132-4.065c.108-10.2,0-13.088,0-13.088h1.355v14.942A9.822,9.822,0,0,0,387.744,557.826Z" transform="translate(-364.088 -531.727)" fill="#7f8284"/>
        <path id="Path_8361" data-name="Path 8361" d="M388.136,557.406s4.885-3.138,8.31-1.391c.142-13.765,0-14.194,0-14.194h1.141v16.155S394.2,555.018,388.136,557.406Z" transform="translate(-363.945 -531.308)" fill="#001d31"/>
        <path id="Path_8362" data-name="Path 8362" d="M388.2,558.534l-3.9-.393s.665-12.07,6.425-17.041a16.3,16.3,0,0,1,1.944-1.29C389.059,545.814,387.632,550.522,388.2,558.534Z" transform="translate(-365.343 -532.042)" fill="#001d31"/>
        <g id="Group_2776" data-name="Group 2776" transform="translate(19.937 5.811)">
          <g id="Group_2771" data-name="Group 2771" transform="translate(0.031 15.522)">
            <path id="Path_8363" data-name="Path 8363" d="M385.911,551.955c.364-.64.747-1.327.923-1.72-.142.016-1.728-.48-1.728-.48l-.042,2A4.081,4.081,0,0,0,385.911,551.955Z" transform="translate(-385.034 -549.747)" fill="#fed1b8"/>
            <path id="Path_8364" data-name="Path 8364" d="M386.32,550.132c.064.031.1.031.16.064v-.033A1.37,1.37,0,0,0,386.32,550.132Zm-.063-.033.063.033V550.1Zm-.128-.031.1.031h.033l-.064-.031Zm-.064-.031-.1-.033h-.1c.031,0,.063.033.1.033a1.369,1.369,0,0,0,.16.031l-.033-.031Zm-.255-.064c.031,0,.064,0,.064.031l-.033-.031Zm-.672,1.789a.517.517,0,0,1,.16.064c.033,0,.033,0,.064.031.064,0,.128.031.224.031v-.031a2.189,2.189,0,0,1-.384-.1Zm.415-1.885h-.1a.117.117,0,0,1,.1.031Zm-.127-.033h-.033c.033.033.033.033.064.033A.032.032,0,0,1,385.426,549.844Zm-.16-.031a.116.116,0,0,0-.1-.033.031.031,0,0,1,.031.033Zm-.16,1.916a.032.032,0,0,0,.031.033v-.033Zm1.725-1.5c-.031,0-.16-.031-.319-.064-.064-.031-.128-.031-.192-.064-.031,0-.1-.031-.127-.031l-.1-.031h-.031l-.1-.033h-.1c.031,0,.063.033.1.033a1.369,1.369,0,0,0,.16.031l.1.031h.033l.063.033c.064.031.1.031.16.064.161.031.288.063.321.063a2.064,2.064,0,0,1-.128.288v.033l.031-.033a2.664,2.664,0,0,0,.16-.288v-.031Zm-1.119,1.661h-.063c-.033.033-.064.033-.064,0v-.031a2.189,2.189,0,0,1-.384-.1h-.064v-.033h-.031l.031-1.949v-.031h-.031v.031l-.064,1.918v.064h.031s.1.031.224.064c.033,0,.033,0,.064.031a.953.953,0,0,1,.255.064.951.951,0,0,0,.288.064h.031v-.033c.321-.575.576-1.054.736-1.373q-.289.479-.767,1.342A.4.4,0,0,1,385.712,551.889Zm.1-1.916c.031,0,.064,0,.064.031l-.033-.031Zm-.128-.064h-.1c.031,0,.064.031.1.031Zm-.128,0h.033a.031.031,0,0,0-.033-.031c-.031,0-.063-.033-.127-.033h-.033c.033.033.033.033.064.033A.117.117,0,0,1,385.552,549.909Zm-.287-.1a.116.116,0,0,0-.1-.033.031.031,0,0,1,.031.033Z" transform="translate(-385.042 -549.749)" fill="#fdd7bd"/>
          </g>
          <path id="Path_8365" data-name="Path 8365" d="M385.823,553.971l.033.031h.063A.117.117,0,0,0,385.823,553.971Zm-.16-.064c-.031,0-.1-.031-.128-.031v.031h.033c.031,0,.064.031.1.031.031-.031.064,0,.1.033h.033c-.033-.033-.064-.033-.1-.064Zm-.224-.031h.1c-.031,0-.063-.033-.127-.033A.032.032,0,0,0,385.44,553.875Zm-.319-.1s0-.031.033,0l-.033-.031Zm5.752-12.814-.031.128.127-.383Zm-1.215-2.173-.031.033h.031Zm-.031.033h-.031v.031s0-.031.031,0Zm-.064.16c.033-.031,0-.031,0-.031l.033-.033v-.064l-.033.033c0,.031-.031.1-.064.224a1.976,1.976,0,0,0-.063.222c-.033,0-.033.033,0,.064a.118.118,0,0,0,.031-.1A1.028,1.028,0,0,0,389.562,538.984Zm-2.173,7.253c.033-.16.1-.287.128-.448a.447.447,0,0,1,.064-.191v-.031a.467.467,0,0,0,.064-.192,6.258,6.258,0,0,0,.16-.607c.031-.031.031-.1.063-.127l.1-.383.031-.033c.128-.415.257-.863.384-1.246.033-.16.1-.351.128-.51,0-.033,0-.033.031-.064,0-.031,0-.031.033-.031.1-.385.222-.767.319-1.086.031-.161.1-.352.127-.481l.033-.031c.031-.128.064-.255.1-.383a.11.11,0,0,0,.031-.064c.033-.128.064-.255.1-.383s.063-.224.1-.319h.031v-.031a.554.554,0,0,0,.033-.193c-.064.16-.128.352-.192.543,0,.033-.031.064-.031.1-.064.224-.16.48-.224.767-.128.383-.255.8-.384,1.246a3.775,3.775,0,0,0-.16.576c-.031.127-.1.288-.128.415-.063.192-.127.415-.191.639-.064.16-.1.319-.16.48-.033.063-.033.127-.064.191v.031c-.033.161-.1.288-.128.416v.031l-.031.033c0,.031-.033.1-.033.127v.064c-.1.224-.127.415-.191.607v.064a5.15,5.15,0,0,0-.224.639v.064c.031-.064.031-.1.064-.16Zm-.415,1.342v-.1a2.168,2.168,0,0,0-.1.257v.063a.535.535,0,0,0,.064-.16C386.974,547.612,386.974,547.612,386.974,547.579Zm-.1.224c-.064.192-.128.416-.192.607v.064c.033-.064.033-.128.064-.191A2.755,2.755,0,0,1,386.878,547.8Zm-.384,6.359h-.033v.033c.161.031.288.063.321.063h.063v-.031l3.962-13-3.994,13C386.783,554.226,386.654,554.195,386.495,554.162Zm.191-5.688c-.063.191-.127.415-.191.607s-.128.415-.192.607c-.063.224-.127.446-.191.67a.553.553,0,0,0,.064-.16c.16-.415.287-.863.415-1.31C386.623,548.762,386.654,548.634,386.686,548.474Zm-.384,5.656V554.1h-.063A.108.108,0,0,0,386.3,554.131Zm-.607-2.333c.128-.352.224-.7.352-1.119a1.416,1.416,0,0,0,.064-.319c-.193.576-.352,1.119-.479,1.6A.248.248,0,0,0,385.695,551.8Zm.161,2.2h.063a.117.117,0,0,0-.1-.031Zm-.192-.1c-.031,0-.1-.031-.128-.031s-.063-.033-.127-.033a.032.032,0,0,0,.031.033.117.117,0,0,1,.1.031h.033c.031,0,.064.031.1.031.031-.031.064,0,.1.033h.033c-.033-.033-.064-.033-.1-.064Zm-.16-1.5a.251.251,0,0,0,.064-.16.115.115,0,0,0,.031-.064c0-.064.033-.128.033-.224-.064.16-.1.288-.128.384Zm-.351,1.213c0-.031.031-.064.031-.1a2.232,2.232,0,0,0,.1-.255c.033-.16.1-.384.16-.607.033,0,.033-.033.033-.064,0-.064.031-.128.031-.191a1.554,1.554,0,0,0-.128.351A6.95,6.95,0,0,0,385.153,553.619Zm-.033.1a.114.114,0,0,0,.033-.064v-.033a.1.1,0,0,0-.033.064C385.089,553.716,385.12,553.716,385.12,553.716Zm-.031.063h.031c.033,0,.033,0,.064.033h.064a.116.116,0,0,0-.1-.033l-.033-.031v-.031l-.031.031Z" transform="translate(-384.993 -538.225)" fill="#f16711"/>
          <g id="Group_2772" data-name="Group 2772" transform="translate(0.096)">
            <path id="Path_8366" data-name="Path 8366" d="M386.823,554.382c-.142.016-1.728-.48-1.728-.48s4.375-14.555,4.485-14.853a.928.928,0,1,1,1.765.572Z" transform="translate(-385.087 -538.371)" fill="url(#linear-gradient)"/>
            <path id="Path_8367" data-name="Path 8367" d="M386.175,554.218l.064.031h.063C386.271,554.249,386.207,554.218,386.175,554.218Zm-.064,0h.064l-.1-.031Zm-.255-.064h.063a.117.117,0,0,0-.1-.031Zm-.288-.1c.031,0,.064.031.1.031v-.031Zm-.033,0h.033a.031.031,0,0,0-.033-.031Zm-.1-.031h.1c-.031,0-.063-.033-.127-.033A.032.032,0,0,0,385.44,554.027Zm-.319-.1s0-.031.033,0l-.033-.031Zm6.264-14.89c-.027-.083-.1-.117-.138-.179.005.006,0,.01.01.019v.031a.567.567,0,0,1,.064.16c.031.033.031.033,0,.064.031,0,.031.031.031.064a.094.094,0,0,1,0,.127.414.414,0,0,1-.031.192v.1l-.1.352-.064.222-.288.927-.031.128-.033.1-.031.033-3.962,13c-.031,0-.16-.031-.319-.064-.064-.031-.128-.031-.192-.064-.031,0-.1-.031-.127-.031a.031.031,0,0,0,.031.031h.033a.108.108,0,0,0,.063.033,1.372,1.372,0,0,1,.16.031v.033c.161.031.288.063.321.063h.063v-.031l3.962-13,.033-.033v-.064l.127-.415.193-.639.127-.415.064-.161v-.031a.114.114,0,0,1,.033-.064v-.127a.121.121,0,0,0,.031-.1C391.415,539.2,391.384,539.136,391.384,539.04Zm-.319-.416a1.566,1.566,0,0,0-.288-.191.059.059,0,0,0-.1,0l-.033-.033a.922.922,0,0,0-.415,0c-.031.033-.064.033-.1.064a.032.032,0,0,1-.033.033,1.8,1.8,0,0,1,.224-.064.69.69,0,0,1,.352.031c.031,0,.031,0,.064.033h.031a1.931,1.931,0,0,1,.255.127v.033a.834.834,0,0,1,.157.131.5.5,0,0,1,.057.074.062.062,0,0,1-.022-.045A.9.9,0,0,0,391.064,538.624Zm-1.119-.031c-.031,0-.064.031-.1.064v.031h.031A.473.473,0,0,1,389.945,538.593Zm-.384.543c.033-.031,0-.031,0-.031l.033-.033v-.031l.031-.033v-.031h.031v-.064a.032.032,0,0,0,.033-.031v-.033l-.033.033a.031.031,0,0,0-.031.031l-.031.064v.031l-.033.033c0,.031-.031.1-.064.224a1.973,1.973,0,0,0-.063.223c-.033,0-.033.033,0,.064a.118.118,0,0,0,.031-.1A1.029,1.029,0,0,0,389.562,539.136Zm-1.98,6.583a.467.467,0,0,0,.064-.192c.063-.255.16-.479.222-.734.033-.128.1-.288.128-.416.128-.415.257-.863.384-1.246.064-.224.128-.415.193-.606.1-.385.222-.767.319-1.086a2.341,2.341,0,0,1,.16-.512c.031-.128.064-.255.1-.384a.11.11,0,0,0,.031-.064c.033-.128.064-.255.1-.384a2.228,2.228,0,0,0,.127-.319v-.031a.553.553,0,0,0,.033-.193c-.064.16-.128.352-.192.543,0,.033-.031.064-.031.1-.064.224-.16.48-.224.767-.128.383-.255.8-.384,1.246a3.771,3.771,0,0,0-.16.576c-.031.127-.1.288-.128.415-.063.193-.127.415-.191.639-.064.16-.1.319-.16.48-.033.063-.033.127-.064.191v.031c-.033.161-.1.288-.128.416v.031h-.031v.033c0,.031-.033.1-.033.127v.064c-.1.224-.127.415-.191.608v.064a.253.253,0,0,0,.064-.128Zm-.991,3.322c.128-.415.255-.83.352-1.246.031-.031.031-.031.031-.064.16-.446.288-.894.415-1.342.033-.16.1-.287.128-.448,0-.031.031-.031,0-.063a5.157,5.157,0,0,0-.224.639v.064c-.128.351-.224.7-.319,1.054a2.172,2.172,0,0,0-.1.257v.063c-.064.192-.128.416-.192.607v.064c-.063.191-.127.415-.191.607s-.128.415-.192.607c-.063.224-.127.446-.191.67-.193.576-.352,1.119-.479,1.6-.064.16-.1.288-.128.384v.064a1.552,1.552,0,0,0-.128.351,6.955,6.955,0,0,0-.222.863c0-.031.031-.064.031-.1a2.23,2.23,0,0,0,.1-.255c.033-.16.1-.383.16-.607.033,0,.033-.033.033-.064.031-.1.063-.224.1-.351a.115.115,0,0,0,.031-.064l.1-.383c.128-.352.224-.7.352-1.119.031-.16.1-.319.128-.479C386.335,549.936,386.462,549.489,386.59,549.041Zm-.479,5.177h.064l-.1-.031Zm-.255-.064h.063a.117.117,0,0,0-.1-.031Zm-.288-.1c.031,0,.064.031.1.031v-.031Zm-.16-.064a.032.032,0,0,0,.031.033.117.117,0,0,1,.1.031h.033a.031.031,0,0,0-.033-.031C385.5,554.027,385.472,553.994,385.408,553.994Zm-.288-.127a.114.114,0,0,0,.033-.064v-.033a.1.1,0,0,0-.033.064C385.089,553.867,385.12,553.867,385.12,553.867Zm-.031.063h.031c.033,0,.033,0,.064.033h.064a.116.116,0,0,0-.1-.033l-.033-.031v-.031l-.031.031Z" transform="translate(-385.089 -538.377)" fill="#f47920"/>
          </g>
          <g id="Group_2773" data-name="Group 2773" transform="translate(0 17.471)">
            <path id="Path_8368" data-name="Path 8368" d="M385.9,551.457c-.445.781-.864,1.484-.864,1.484l.034-1.751A3.445,3.445,0,0,0,385.9,551.457Z" transform="translate(-385.011 -551.172)" fill="#1a1718"/>
            <path id="Path_8369" data-name="Path 8369" d="M385.753,551.4a.032.032,0,0,1-.033-.033h-.063c-.033,0-.064,0-.064-.031a2.19,2.19,0,0,1-.384-.1.1.1,0,0,0-.064-.033h-.031l-.033-.031h-.031v.064l-.031,1.789.031-.064v-.031l.031-.033a1.274,1.274,0,0,0,.128-.224,2.424,2.424,0,0,0,.224-.415,8.965,8.965,0,0,0,.479-.8v-.033A1.366,1.366,0,0,1,385.753,551.4Z" transform="translate(-385.019 -551.177)" fill="#7f8284"/>
          </g>
          <g id="Group_2774" data-name="Group 2774" transform="translate(0.67 0.855)">
            <path id="Path_8370" data-name="Path 8370" d="M390.678,539.172a1.574,1.574,0,0,1-.617-.153l-4.54,14.831.621.18Z" transform="translate(-385.506 -538.997)" fill="url(#linear-gradient-2)"/>
            <path id="Path_8371" data-name="Path 8371" d="M390.335,539.131a.2.2,0,0,0,.128.031v-.031Zm-.064-.033h-.031c.031.033.031.033.064.033h.031V539.1Zm-4.313,14.891h.064l-.1-.031Zm-.319-.1h.031l.033.031h.1l-.257-.1C385.574,553.861,385.605,553.861,385.638,553.894Zm5.049-14.731h-.064a.292.292,0,0,1-.16-.031h-.033c-.031,0-.063-.033-.1-.033h-.1c.031.033.031.033.064.033h.031a.2.2,0,0,0,.128.031.548.548,0,0,0,.191.033l-.8,2.652-3.707,12.174,3.74-12.206.8-2.619.031-.033Zm-4.538,14.891v-.033h-.063Zm-.224-.1h-.031l.064.031.1.031h.033l-.064-.031Zm-.384-.128L388.9,542.9l1.182-3.834h.031c.033,0,.033,0,.064.031h.064l-.064-.063a.317.317,0,0,1-.127-.033v.033l-1.183,3.9-.031.064L385.51,553.83v.031c.031-.031.064,0,.1.033h.064l.033.031h.063l.033.033h.1l-.1-.033Z" transform="translate(-385.51 -539.003)" fill="#e30023"/>
          </g>
          <g id="Group_2775" data-name="Group 2775" transform="translate(4.601)">
            <path id="Path_8372" data-name="Path 8372" d="M388.4,538.97a1.508,1.508,0,0,0,.239.167,3.375,3.375,0,0,0,.358.117,2.822,2.822,0,0,0,.267.1,1.07,1.07,0,0,0,.356.045,2.152,2.152,0,0,0,.247.082c.091.019.285.039.285.039a.985.985,0,0,0-.715-1.1C388.861,538.266,388.552,538.765,388.4,538.97Z" transform="translate(-388.384 -538.372)" fill="#9b9da1"/>
            <path id="Path_8373" data-name="Path 8373" d="M390.115,539.072c.031.033.031.033,0,.064h.031C390.147,539.1,390.147,539.1,390.115,539.072Zm-.543.319h.064a1.359,1.359,0,0,1-.224-.031A.292.292,0,0,0,389.572,539.391Zm-.288-.031h.128c-.033,0-.1-.033-.128-.033Zm-.1-.033h.1a.554.554,0,0,1-.16-.063Zm.958.192h-.031a.116.116,0,0,0-.1-.033c-.064,0-.1-.031-.128-.031a.241.241,0,0,1-.16-.031c-.031,0-.031,0-.064-.033h-.031a1.359,1.359,0,0,1-.224-.031c-.033,0-.1-.033-.128-.033a.554.554,0,0,1-.16-.063.317.317,0,0,1-.127-.033l-.257-.064c-.031,0-.064-.031-.1-.031a.432.432,0,0,0-.16-.1c-.033-.033-.033-.033-.033-.064v-.064a.032.032,0,0,0,.033-.031l.191-.192c.033-.064.1-.1.128-.128-.031-.031-.064.033-.064.033-.031,0-.064.031-.1.064v.031l-.031.033-.128.127-.033.033a.031.031,0,0,0-.031.031l-.031.064v.031s0-.031.031,0a1.9,1.9,0,0,0,.224.16c.031.033.128.033.224.064a.315.315,0,0,0,.128.033.031.031,0,0,0,.031.031h.031c.033,0,.033,0,.064.031a.241.241,0,0,0,.16.064h.128a.548.548,0,0,0,.191.033h.033c.031,0,.16.063.255.1a.636.636,0,0,1,.224.031h.064v-.127A.114.114,0,0,0,390.147,539.519Zm-.575-1.022v-.033c0-.031-.031,0-.031,0v.033Zm-.031-.033c-.033-.031-.033-.031-.064-.031v.031Zm-.607,0a.409.409,0,0,1,.191-.031.531.531,0,0,1,.319,0h.033l-.033-.033a.922.922,0,0,0-.415,0c-.064.033-.128.033-.16.1h.031A.032.032,0,0,0,388.933,538.464Z" transform="translate(-388.39 -538.377)" fill="#6a6c6e"/>
          </g>
          <path id="Path_8374" data-name="Path 8374" d="M388.858,539.03" transform="translate(-383.618 -538.138)" fill="none" stroke="#e53518" stroke-width="3.619"/>
        </g>
        <path id="Path_8375" data-name="Path 8375" d="M380.962,541.631a10.886,10.886,0,0,1,6.513,3.007A7.427,7.427,0,0,0,380.962,541.631Z" transform="translate(-366.562 -531.384)" fill="#f9b889"/>
        <path id="Path_8376" data-name="Path 8376" d="M388.753,544.816a5.082,5.082,0,0,1,3.393-.73A3.5,3.5,0,0,0,388.753,544.816Z" transform="translate(-363.719 -530.542)" fill="#494949"/>
        <path id="Path_8377" data-name="Path 8377" d="M389.049,543.671a3.872,3.872,0,0,1,2.584-.557A2.662,2.662,0,0,0,389.049,543.671Z" transform="translate(-363.611 -530.882)" fill="#494949"/>
        <path id="Path_8378" data-name="Path 8378" d="M388.316,546.154a4.751,4.751,0,0,1,3.874-1.024A3.51,3.51,0,0,0,388.316,546.154Z" transform="translate(-363.879 -530.177)" fill="#494949"/>
        <path id="Path_8379" data-name="Path 8379" d="M388.125,547.535a4.563,4.563,0,0,1,4.11-.375S389.8,545.743,388.125,547.535Z" transform="translate(-363.949 -529.554)" fill="#494949"/>
        <path id="Path_8380" data-name="Path 8380" d="M388.125,546.723a4.564,4.564,0,0,1,4.11-.375S389.8,544.931,388.125,546.723Z" transform="translate(-363.949 -529.85)" fill="#494949"/>
        <path id="Path_8381" data-name="Path 8381" d="M388.07,548.374a4.569,4.569,0,0,1,4.11-.375S389.746,546.582,388.07,548.374Z" transform="translate(-363.969 -529.248)" fill="#494949"/>
        <path id="Path_8382" data-name="Path 8382" d="M387.895,549.542a5.174,5.174,0,0,1,4.424-.519S389.75,547.633,387.895,549.542Z" transform="translate(-364.033 -528.859)" fill="#494949"/>
        <path id="Path_8383" data-name="Path 8383" d="M380.821,543.026a9.53,9.53,0,0,1,6.294,2.275A6.616,6.616,0,0,0,380.821,543.026Z" transform="translate(-366.614 -530.913)" fill="#f9b889"/>
        <path id="Path_8384" data-name="Path 8384" d="M380.71,544.328a7.835,7.835,0,0,1,5.742,1.864A5.6,5.6,0,0,0,380.71,544.328Z" transform="translate(-366.654 -530.473)" fill="#f9b889"/>
        <path id="Path_8385" data-name="Path 8385" d="M380.48,545.4a7.27,7.27,0,0,1,5.348,2.245A5.257,5.257,0,0,0,380.48,545.4Z" transform="translate(-366.738 -530.051)" fill="#f9b889"/>
        <path id="Path_8386" data-name="Path 8386" d="M380.265,546.506a7.155,7.155,0,0,1,5.3,2.244S383.636,545.727,380.265,546.506Z" transform="translate(-366.817 -529.646)" fill="#f9b889"/>
        <path id="Path_8387" data-name="Path 8387" d="M380.253,547.9a7.672,7.672,0,0,1,5.116,1.874A5.345,5.345,0,0,0,380.253,547.9Z" transform="translate(-366.821 -529.127)" fill="#f9b889"/>
        <g id="Group_2777" data-name="Group 2777" transform="translate(0 1.528)">
          <path id="Path_8388" data-name="Path 8388" d="M407.854,553.41a18.315,18.315,0,0,1-3.405,11.375,18.756,18.756,0,1,1-4.495-25.982q.463.329.9.681a18.815,18.815,0,0,1,4.512,5.277c.235.405.853,1.658.652,1.238a21.3,21.3,0,0,0-5.719-6.949,17.328,17.328,0,1,0,7.174,13.732,10.691,10.691,0,0,0-.329-2.723c.157.453.225.651.319.983A16.775,16.775,0,0,1,407.854,553.41Z" transform="translate(-370.379 -535.224)" fill="#001d31"/>
          <path id="Path_8389" data-name="Path 8389" d="M407.764,553.372a18.32,18.32,0,0,1-3.405,11.372,18.755,18.755,0,1,1-4.495-25.981c.308.22.607.448.9.681a18.783,18.783,0,0,1,4.514,5.278c.233.4.853,1.657.651,1.238a21.3,21.3,0,0,0-5.718-6.95,17.326,17.326,0,1,0,7.174,13.732,10.761,10.761,0,0,0-.329-2.723c.157.453.224.653.319.983A17.168,17.168,0,0,1,407.764,553.372Z" transform="translate(-370.412 -535.238)" fill="#ec421c"/>
        </g>
      </g>
    </g>
    <g id="Rectangle_1822" data-name="Rectangle 1822" transform="translate(0 123)" fill="none" stroke="#707070" stroke-width="1" opacity="0">
      <rect width="200" height="65" stroke="none"/>
      <rect x="0.5" y="0.5" width="199" height="64" fill="none"/>
    </g>
    <g id="Group_13347" data-name="Group 13347" transform="translate(174.162 237.328)" style="isolation: isolate">
      <path id="Path_16040" data-name="Path 16040" d="M-113.727-55.513v.832h-6.435v-9.1h6.24v.832H-119.2v3.237h4.706v.819H-119.2v3.38Z" fill="#111b51"/>
      <path id="Path_16041" data-name="Path 16041" d="M-105.524-64.328v9.647h-.884v-1.352a2.825,2.825,0,0,1-1.1,1.053,3.228,3.228,0,0,1-1.54.364,3.466,3.466,0,0,1-1.742-.442,3.155,3.155,0,0,1-1.222-1.235,3.646,3.646,0,0,1-.442-1.807,3.646,3.646,0,0,1,.442-1.807,3.1,3.1,0,0,1,1.222-1.228,3.5,3.5,0,0,1,1.742-.436,3.228,3.228,0,0,1,1.5.344,2.845,2.845,0,0,1,1.1,1.008v-4.109Zm-2.152,8.561a2.347,2.347,0,0,0,.91-.942,2.875,2.875,0,0,0,.332-1.391,2.869,2.869,0,0,0-.332-1.391,2.362,2.362,0,0,0-.91-.943,2.555,2.555,0,0,0-1.293-.331,2.581,2.581,0,0,0-1.307.331,2.362,2.362,0,0,0-.91.943,2.869,2.869,0,0,0-.331,1.391,2.874,2.874,0,0,0,.331,1.391,2.347,2.347,0,0,0,.91.942,2.572,2.572,0,0,0,1.307.332A2.546,2.546,0,0,0-107.676-55.767Z" fill="#111b51"/>
      <path id="Path_16042" data-name="Path 16042" d="M-96.788-61.519v6.838h-.884v-1.248a2.542,2.542,0,0,1-1,.969,3.02,3.02,0,0,1-1.456.344,2.91,2.91,0,0,1-2.113-.748,2.91,2.91,0,0,1-.773-2.19v-3.965h.923v3.874a2.281,2.281,0,0,0,.533,1.638,2,2,0,0,0,1.521.559,2.237,2.237,0,0,0,1.7-.657,2.542,2.542,0,0,0,.624-1.826v-3.588Z" fill="#111b51"/>
      <path id="Path_16043" data-name="Path 16043" d="M-93.181-55.058A3.2,3.2,0,0,1-94.435-56.3a3.574,3.574,0,0,1-.455-1.8,3.532,3.532,0,0,1,.455-1.794,3.215,3.215,0,0,1,1.254-1.235,3.694,3.694,0,0,1,1.814-.442,3.5,3.5,0,0,1,1.579.344,2.621,2.621,0,0,1,1.1,1.008l-.689.468a2.163,2.163,0,0,0-.858-.76,2.549,2.549,0,0,0-1.131-.254,2.679,2.679,0,0,0-1.333.331,2.341,2.341,0,0,0-.923.943,2.869,2.869,0,0,0-.331,1.391,2.859,2.859,0,0,0,.331,1.4,2.336,2.336,0,0,0,.923.936,2.669,2.669,0,0,0,1.333.332,2.6,2.6,0,0,0,1.131-.247,2.118,2.118,0,0,0,.858-.754l.689.468a2.619,2.619,0,0,1-1.1,1.008,3.534,3.534,0,0,1-1.573.344A3.683,3.683,0,0,1-93.181-55.058Z" fill="#111b51"/>
      <path id="Path_16044" data-name="Path 16044" d="M-82.437-60.9a2.588,2.588,0,0,1,.716,1.983v4.238h-.884v-1.067a2.112,2.112,0,0,1-.917.832,3.185,3.185,0,0,1-1.436.3,2.805,2.805,0,0,1-1.82-.547,1.76,1.76,0,0,1-.677-1.442,1.746,1.746,0,0,1,.631-1.4,3.082,3.082,0,0,1,2.009-.533h2.17v-.416a1.748,1.748,0,0,0-.494-1.345,2.037,2.037,0,0,0-1.443-.462,3.647,3.647,0,0,0-1.248.215,3.134,3.134,0,0,0-1.026.591l-.416-.689a3.683,3.683,0,0,1,1.248-.683,4.863,4.863,0,0,1,1.534-.24A2.893,2.893,0,0,1-82.437-60.9Zm-1.04,5.2a2.133,2.133,0,0,0,.832-1.033v-1.118H-84.79q-1.753,0-1.754,1.222a1.114,1.114,0,0,0,.455.942,2.062,2.062,0,0,0,1.274.345A2.422,2.422,0,0,0-83.477-55.7Z" fill="#111b51"/>
      <path id="Path_16045" data-name="Path 16045" d="M-75.611-55.1a1.755,1.755,0,0,1-.644.357,2.6,2.6,0,0,1-.8.124,2.009,2.009,0,0,1-1.482-.52,1.989,1.989,0,0,1-.52-1.469v-4.134h-1.221v-.78h1.221v-1.495h.924v1.495h2.079v.78h-2.079v4.082a1.289,1.289,0,0,0,.305.929,1.155,1.155,0,0,0,.877.319A1.692,1.692,0,0,0-76.4-55.5a1.368,1.368,0,0,0,.461-.26Z" fill="#111b51"/>
      <path id="Path_16046" data-name="Path 16046" d="M-73.948-63.209a.64.64,0,0,1-.195-.468.624.624,0,0,1,.195-.455.655.655,0,0,1,.481-.2.665.665,0,0,1,.481.19.6.6,0,0,1,.195.448.651.651,0,0,1-.195.481.657.657,0,0,1-.481.195A.659.659,0,0,1-73.948-63.209Zm.013,1.69h.923v6.838h-.923Z" fill="#111b51"/>
      <path id="Path_16047" data-name="Path 16047" d="M-69.424-55.065a3.274,3.274,0,0,1-1.247-1.241,3.532,3.532,0,0,1-.455-1.794,3.532,3.532,0,0,1,.455-1.794,3.231,3.231,0,0,1,1.247-1.235,3.605,3.605,0,0,1,1.781-.442,3.6,3.6,0,0,1,1.781.442,3.185,3.185,0,0,1,1.242,1.235,3.579,3.579,0,0,1,.449,1.794,3.579,3.579,0,0,1-.449,1.794,3.227,3.227,0,0,1-1.242,1.241,3.552,3.552,0,0,1-1.781.449A3.557,3.557,0,0,1-69.424-55.065Zm3.088-.7a2.3,2.3,0,0,0,.9-.942,2.917,2.917,0,0,0,.326-1.391,2.912,2.912,0,0,0-.326-1.391,2.319,2.319,0,0,0-.9-.943,2.581,2.581,0,0,0-1.307-.331,2.58,2.58,0,0,0-1.306.331,2.362,2.362,0,0,0-.91.943A2.869,2.869,0,0,0-70.19-58.1a2.874,2.874,0,0,0,.331,1.391,2.347,2.347,0,0,0,.91.942,2.57,2.57,0,0,0,1.306.332A2.572,2.572,0,0,0-66.336-55.767Z" fill="#111b51"/>
      <path id="Path_16048" data-name="Path 16048" d="M-56.755-60.824a2.922,2.922,0,0,1,.76,2.178v3.965h-.923v-3.874a2.268,2.268,0,0,0-.533-1.625,2,2,0,0,0-1.521-.559,2.338,2.338,0,0,0-1.748.656,2.48,2.48,0,0,0-.644,1.814v3.588h-.923v-6.838h.884v1.261a2.572,2.572,0,0,1,1.047-.969,3.343,3.343,0,0,1,1.553-.344A2.8,2.8,0,0,1-56.755-60.824Z" fill="#111b51"/>
      <path id="Path_16049" data-name="Path 16049" d="M-43.45-55.513v.832h-6.435v-9.1h6.24v.832h-5.278v3.237h4.706v.819h-4.706v3.38Z" fill="#111b51"/>
      <path id="Path_16050" data-name="Path 16050" d="M-34.974-54.681l-2.08-2.925a6.851,6.851,0,0,1-.728.039h-2.444v2.886h-.962v-9.1h3.406a4.113,4.113,0,0,1,2.73.832,2.834,2.834,0,0,1,.988,2.287,2.955,2.955,0,0,1-.54,1.8,2.987,2.987,0,0,1-1.54,1.06l2.223,3.12Zm-.767-4.3a2.065,2.065,0,0,0,.715-1.678,2.077,2.077,0,0,0-.715-1.7,3.177,3.177,0,0,0-2.067-.591h-2.418v4.563h2.418A3.143,3.143,0,0,0-35.741-58.984Z" fill="#111b51"/>
      <path id="Path_16051" data-name="Path 16051" d="M-25.653-62.949a2.834,2.834,0,0,1,.988,2.287,2.816,2.816,0,0,1-.988,2.283,4.141,4.141,0,0,1-2.73.825h-2.444v2.873h-.962v-9.1h3.406A4.115,4.115,0,0,1-25.653-62.949Zm-.689,3.958a2.045,2.045,0,0,0,.715-1.671,2.077,2.077,0,0,0-.715-1.7,3.177,3.177,0,0,0-2.067-.591h-2.418v4.55h2.418A3.165,3.165,0,0,0-26.342-58.991Z" fill="#111b51"/>
    </g>
  </g>
</svg>
