<svg xmlns="http://www.w3.org/2000/svg" width="22.266" height="30" viewBox="0 0 22.266 30"><defs><style>.a{fill:#2262c6;}</style></defs><path class="a" d="M19.922,11.543V8.789a8.789,8.789,0,0,0-17.578,0v2.754A2.934,2.934,0,0,0,0,14.414V17.74a.586.586,0,0,0,1.172,0V14.414A1.76,1.76,0,0,1,2.93,12.656H19.336a1.76,1.76,0,0,1,1.758,1.758V27.07a1.761,1.761,0,0,1-1.172,1.657V25.2a.586.586,0,0,0-1.172,0v3.633H2.93A1.76,1.76,0,0,1,1.172,27.07V22.441a.586.586,0,0,0-1.172,0V27.07A2.933,2.933,0,0,0,2.93,30H19.336a2.933,2.933,0,0,0,2.93-2.93V14.414A2.934,2.934,0,0,0,19.922,11.543ZM6.68,11.484v-2.7a4.453,4.453,0,1,1,8.906,0v2.7Zm10.078,0v-2.7a5.625,5.625,0,1,0-11.25,0v2.7H3.516v-2.7a7.617,7.617,0,1,1,15.234,0v2.7Zm0,0"/><path class="a" d="M.586,333.66A.586.586,0,1,0,0,333.074a.586.586,0,0,0,.586.586Zm0,0" transform="translate(0 -313.006)"/><path class="a" d="M139.286,286.583a1.76,1.76,0,0,0,1.758-1.758v-3.111a3.164,3.164,0,1,0-3.516-.01v3.121A1.76,1.76,0,0,0,139.286,286.583Zm-1.985-7.505a1.992,1.992,0,1,1,2.891,1.777.586.586,0,0,0-.321.523v3.447a.586.586,0,0,1-1.172,0V281.37a.586.586,0,0,0-.317-.521A1.986,1.986,0,0,1,137.3,279.078Zm0,0" transform="translate(-128.153 -259.747)"/><path class="a" d="M320.586,380.172a.586.586,0,1,0-.414-.172A.589.589,0,0,0,320.586,380.172Zm0,0" transform="translate(-301.25 -356.793)"/></svg>