<svg xmlns="http://www.w3.org/2000/svg" width="24" height="30" viewBox="0 0 24 30"><defs><style>.a{fill:#0ab69f;}</style></defs><g transform="translate(0 0)"><path class="a" d="M19.143,0H5.605a.417.417,0,0,0-.417.417v.96H1.911A1.913,1.913,0,0,0,0,3.288v24.8A1.913,1.913,0,0,0,1.911,30H22.089A1.914,1.914,0,0,0,24,28.089V3.288a1.914,1.914,0,0,0-1.911-1.911h-2.53V.417A.417.417,0,0,0,19.143,0ZM6.022.833h12.7V2.57H6.022ZM22.089,2.21a1.08,1.08,0,0,1,1.078,1.078v24.8a1.079,1.079,0,0,1-1.078,1.078H1.911A1.079,1.079,0,0,1,.833,28.089V3.288A1.08,1.08,0,0,1,1.911,2.21H5.188v.777A.417.417,0,0,0,5.6,3.4H19.143a.417.417,0,0,0,.417-.417V2.21Zm0,0"/><path class="a" d="M236.895,212.078h-3.279a.417.417,0,1,0,0,.833h3.279a.417.417,0,0,0,0-.833Zm0,0" transform="translate(-217.005 -197.35)"/><path class="a" d="M95.464,212.078a.417.417,0,0,0,0,.833h7.662a.417.417,0,0,0,0-.833Zm0,0" transform="translate(-88.446 -197.35)"/><path class="a" d="M53.6,212.911h1.209a.417.417,0,0,0,0-.833H53.6a.417.417,0,0,0,0,.833Zm0,0" transform="translate(-49.494 -197.35)"/><path class="a" d="M158.648,281.922H149.53a.417.417,0,0,0,0,.833h9.118a.417.417,0,0,0,0-.833Zm0,0" transform="translate(-138.758 -262.344)"/><path class="a" d="M53.6,282.755h4.73a.417.417,0,0,0,0-.833H53.6a.417.417,0,0,0,0,.833Zm0,0" transform="translate(-49.494 -262.344)"/><path class="a" d="M275.756,346.477h-.379a.417.417,0,1,0,0,.833h.379a.417.417,0,1,0,0-.833Zm0,0" transform="translate(-255.866 -322.416)"/><path class="a" d="M237.064,346.477h-.783a.417.417,0,0,0,0,.833h.783a.417.417,0,1,0,0-.833Zm0,0" transform="translate(-219.484 -322.416)"/><path class="a" d="M64.309,346.477H53.6a.417.417,0,0,0,0,.833H64.309a.417.417,0,0,0,0-.833Zm0,0" transform="translate(-49.491 -322.416)"/><path class="a" d="M53.6,107.855h6.812a.417.417,0,0,0,.417-.417V103.7a.417.417,0,0,0-.417-.417H53.6a.417.417,0,0,0-.417.417v3.736A.417.417,0,0,0,53.6,107.855Zm.417-3.736H60v2.9H54.021Zm0,0" transform="translate(-49.494 -96.113)"/><path class="a" d="M276.952,157.09h-.289a.417.417,0,0,0,0,.833h.289a.417.417,0,0,0,0-.833Zm0,0" transform="translate(-257.062 -146.181)"/><path class="a" d="M203.077,157.923h3.178a.417.417,0,0,0,0-.833h-3.178a.417.417,0,1,0,0,.833Zm0,0" transform="translate(-188.586 -146.181)"/><path class="a" d="M234.277,103.7a.417.417,0,0,0,.417.417h3.2a.417.417,0,1,0,0-.833h-3.2A.417.417,0,0,0,234.277,103.7Zm0,0" transform="translate(-218.008 -96.112)"/><path class="a" d="M203.077,104.118h.264a.417.417,0,1,0,0-.833h-.264a.417.417,0,1,0,0,.833Zm0,0" transform="translate(-188.586 -96.112)"/></g></svg>