<svg xmlns="http://www.w3.org/2000/svg" width="18.737" height="14" viewBox="0 0 18.737 14">
  <g id="envelope" transform="translate(0 -54.82)">
    <g id="Group_15001" data-name="Group 15001" transform="translate(0 54.82)">
      <path id="Path_20223" data-name="Path 20223" d="M1.8,59.135q.356.239,2.143,1.417t2.739,1.814q.1.07.444.3t.565.378q.225.144.544.323a3.232,3.232,0,0,0,.6.268,1.734,1.734,0,0,0,.523.089h.021a1.735,1.735,0,0,0,.523-.089,3.235,3.235,0,0,0,.6-.268q.319-.179.544-.323t.565-.378q.34-.234.444-.3l4.893-3.232a4.85,4.85,0,0,0,1.275-1.223,2.539,2.539,0,0,0,.512-1.5,1.488,1.488,0,0,0-.5-1.124,1.659,1.659,0,0,0-1.176-.467H1.673a1.527,1.527,0,0,0-1.239.517A1.942,1.942,0,0,0,0,56.63a2.26,2.26,0,0,0,.575,1.357A5.078,5.078,0,0,0,1.8,59.135Z" transform="translate(0 -54.82)" fill="#c1c1c1"/>
      <path id="Path_20224" data-name="Path 20224" d="M17.691,185.3q-3.429,2.207-5.207,3.431-.6.417-.967.651a6.093,6.093,0,0,1-.988.477,3.14,3.14,0,0,1-1.15.244H9.358a3.141,3.141,0,0,1-1.15-.244,6.1,6.1,0,0,1-.988-.477q-.371-.234-.967-.651-1.412-.984-5.2-3.431A5.47,5.47,0,0,1,0,184.437v7.895a1.5,1.5,0,0,0,.491,1.124,1.653,1.653,0,0,0,1.182.467H17.064a1.653,1.653,0,0,0,1.181-.467,1.5,1.5,0,0,0,.491-1.124v-7.895A5.689,5.689,0,0,1,17.691,185.3Z" transform="translate(0 -179.923)" fill="#c1c1c1"/>
    </g>
  </g>
</svg>
