<svg xmlns="http://www.w3.org/2000/svg" width="22.348" height="22.804" viewBox="0 0 22.348 22.804"><defs><style>.a{fill:#4285f4;}.b{fill:#34a853;}.c{fill:#fbbc05;}.d{fill:#eb4335;}</style></defs><path class="a" d="M141.5,109.092a9.771,9.771,0,0,0-.241-2.331H130.55v4.231h6.284a5.572,5.572,0,0,1-2.331,3.7l-.021.142,3.385,2.622.234.023a11.148,11.148,0,0,0,3.4-8.387" transform="translate(-119.148 -97.437)"/><path class="b" d="M24.111,165.517a10.868,10.868,0,0,0,7.551-2.762l-3.6-2.787a6.748,6.748,0,0,1-3.953,1.14,6.864,6.864,0,0,1-6.487-4.738l-.134.011-3.52,2.724-.046.128a11.394,11.394,0,0,0,10.186,6.284" transform="translate(-12.709 -142.713)"/><path class="c" d="M4.916,78.741a7.02,7.02,0,0,1-.38-2.255A7.376,7.376,0,0,1,4.9,74.231L4.9,74.08,1.333,71.312l-.117.055a11.378,11.378,0,0,0,0,10.237l3.7-2.863" transform="translate(0 -65.084)"/><path class="d" d="M24.111,4.409a6.319,6.319,0,0,1,4.409,1.7l3.218-3.142A10.955,10.955,0,0,0,24.111,0,11.394,11.394,0,0,0,13.925,6.284l3.687,2.863a6.892,6.892,0,0,1,6.5-4.738" transform="translate(-12.709)"/></svg>