<svg xmlns="http://www.w3.org/2000/svg" width="34.98" height="30" viewBox="0 0 34.98 30"><defs><style>.a{fill:#00c3e2;}</style></defs><g transform="translate(0 -14.748)"><path class="a" d="M33.135,14.748H1.845A1.961,1.961,0,0,0,0,16.8V42.852a1.809,1.809,0,0,0,1.7,1.9H33.279a1.809,1.809,0,0,0,1.7-1.9V16.8A1.961,1.961,0,0,0,33.135,14.748ZM.956,16.8a.944.944,0,0,1,.888-.99H33.135a.944.944,0,0,1,.888.99V20.5H.956ZM34.023,42.852a.792.792,0,0,1-.745.83H1.7a.792.792,0,0,1-.745-.831V21.563H34.023Z"/><path class="a" d="M67.152,24.186H48.415a.536.536,0,0,0,0,1.066H67.152a.536.536,0,0,0,0-1.066Z" transform="translate(-34.837 -6.564)"/><path class="a" d="M9.743,24.186H8.478a.536.536,0,0,0,0,1.066H9.743a.536.536,0,0,0,0-1.066Z" transform="translate(-5.814 -6.564)"/><path class="a" d="M23.055,24.186H21.79a.536.536,0,0,0,0,1.066h1.265a.536.536,0,0,0,0-1.066Z" transform="translate(-15.488 -6.564)"/><path class="a" d="M36.367,24.186H35.1a.536.536,0,0,0,0,1.066h1.264a.536.536,0,0,0,0-1.066Z" transform="translate(-25.163 -6.564)"/><path class="a" d="M46.5,53.541a4.9,4.9,0,0,0,3.648,1.668,5.593,5.593,0,0,0,5.208-5.8,5.736,5.736,0,0,0-3.871-5.618,5.006,5.006,0,0,0-5.862,2.738,6.305,6.305,0,0,0,.879,7.015Zm2.984-3.122a1.34,1.34,0,0,1-.408-1.4,1.1,1.1,0,0,1,2.144,0,1.34,1.34,0,0,1-.408,1.4.569.569,0,0,0-.172.6.486.486,0,0,0,.454.367h.1a1.732,1.732,0,0,1,1.635,1.353L52.91,53a3.909,3.909,0,0,1-5.52,0l.073-.269A1.732,1.732,0,0,1,49.1,51.381h.1a.486.486,0,0,0,.454-.367.569.569,0,0,0-.172-.6Zm.664-5.751A4.213,4.213,0,0,1,53.917,47.2a5.194,5.194,0,0,1-.273,4.895,2.767,2.767,0,0,0-1.635-1.647,2.5,2.5,0,0,0-.548-2.856,1.92,1.92,0,0,0-2.621,0,2.5,2.5,0,0,0-.548,2.856A2.767,2.767,0,0,0,46.657,52.1a5.194,5.194,0,0,1-.273-4.895A4.213,4.213,0,0,1,50.151,44.668Z" transform="translate(-32.661 -20.06)"/><path class="a" d="M36.2,92.384H49.109a1.67,1.67,0,0,0,1.571-1.751V89.376a1.67,1.67,0,0,0-1.571-1.751H36.2a1.671,1.671,0,0,0-1.571,1.751v1.256A1.671,1.671,0,0,0,36.2,92.384Zm12.913-3.693a.654.654,0,0,1,.615.685v1.256a.654.654,0,0,1-.615.685H46.82V88.691Zm-13.527.685a.654.654,0,0,1,.615-.685h9.667v2.627H36.2a.654.654,0,0,1-.615-.685Z" transform="translate(-25.163 -50.682)"/></g></svg>