<svg xmlns="http://www.w3.org/2000/svg" width="164.054" height="125.142" viewBox="0 0 164.054 125.142">
  <g id="Group_15000" data-name="Group 15000" transform="translate(-2041.442 -332.509)">
    <g id="img" transform="translate(2041.898 332.737)">
      <g id="Group_14999" data-name="Group 14999" transform="translate(57.18 13.453)">
        <g id="Rectangle_45-4" data-name="Rectangle 45-4">
          <rect id="Rectangle_4792" data-name="Rectangle 4792" width="52.979" height="94.185" rx="11.97" fill="#0ab69f"/>
          <rect id="Rectangle_4793" data-name="Rectangle 4793" width="50.26" height="91.466" rx="5" transform="translate(1.36 1.36)" fill="none" stroke="#fff" stroke-width="5"/>
        </g>
      </g>
      <g id="Ellipse_31-2" data-name="Ellipse 31-2" transform="translate(57.184)">
        <circle id="Ellipse_3418" data-name="Ellipse 3418" cx="2.102" cy="2.102" r="2.102" fill="none"/>
        <circle id="Ellipse_3419" data-name="Ellipse 3419" cx="1.83" cy="1.83" r="1.83" transform="translate(0.272 0.272)" fill="none" stroke="#b8c284" stroke-width="1"/>
      </g>
      <g id="Ellipse_32-2" data-name="Ellipse 32-2" transform="translate(41.206 104.276)">
        <circle id="Ellipse_3420" data-name="Ellipse 3420" cx="3.363" cy="3.363" r="3.363" fill="none"/>
        <circle id="Ellipse_3421" data-name="Ellipse 3421" cx="2.82" cy="2.82" r="2.82" transform="translate(0.544 0.544)" fill="none" stroke="#b8c284" stroke-width="2"/>
      </g>
      <g id="Ellipse_37-2" data-name="Ellipse 37-2" transform="translate(138.386 96.236)">
        <circle id="Ellipse_3422" data-name="Ellipse 3422" cx="2.102" cy="2.102" r="2.102" fill="none"/>
        <circle id="Ellipse_3423" data-name="Ellipse 3423" cx="1.558" cy="1.558" r="1.558" transform="translate(0.544 0.544)" fill="none" stroke="#b8c284" stroke-width="2"/>
      </g>
      <g id="Ellipse_35-2" data-name="Ellipse 35-2" transform="translate(0 104.276)">
        <circle id="Ellipse_3424" data-name="Ellipse 3424" cx="5.046" cy="5.046" r="5.046" fill="none"/>
        <circle id="Ellipse_3425" data-name="Ellipse 3425" cx="4.502" cy="4.502" r="4.502" transform="translate(0.544 0.544)" fill="none" stroke="#97a0fb" stroke-width="2"/>
      </g>
      <g id="Ellipse_38-2" data-name="Ellipse 38-2" transform="translate(154.732 117.731)">
        <circle id="Ellipse_3426" data-name="Ellipse 3426" cx="3.363" cy="3.363" r="3.363" fill="none"/>
        <circle id="Ellipse_3427" data-name="Ellipse 3427" cx="2.82" cy="2.82" r="2.82" transform="translate(0.544 0.544)" fill="none" stroke="#44c4a1" stroke-width="2"/>
      </g>
      <g id="Ellipse_39-2" data-name="Ellipse 39-2" transform="translate(16.819 40.365)">
        <circle id="Ellipse_3428" data-name="Ellipse 3428" cx="2.102" cy="2.102" r="2.102" fill="none"/>
        <circle id="Ellipse_3429" data-name="Ellipse 3429" cx="1.558" cy="1.558" r="1.558" transform="translate(0.544 0.544)" fill="none" stroke="#44c4a1" stroke-width="2"/>
      </g>
      <g id="Ellipse_36-2" data-name="Ellipse 36-2" transform="translate(159.778 49.615)">
        <circle id="Ellipse_3430" data-name="Ellipse 3430" cx="1.682" cy="1.682" r="1.682" fill="none"/>
        <circle id="Ellipse_3431" data-name="Ellipse 3431" cx="1.138" cy="1.138" r="1.138" transform="translate(0.544 0.544)" fill="none" stroke="#97a0fb" stroke-width="2"/>
      </g>
      <g id="Ellipse_33-2" data-name="Ellipse 33-2" transform="translate(131.186 6.728)">
        <circle id="Ellipse_3432" data-name="Ellipse 3432" cx="3.363" cy="3.363" r="3.363" fill="none"/>
        <circle id="Ellipse_3433" data-name="Ellipse 3433" cx="2.82" cy="2.82" r="2.82" transform="translate(0.544 0.544)" fill="none" stroke="#b8c284" stroke-width="2"/>
      </g>
    </g>
    <g id="Group_2541" data-name="Group 2541" transform="translate(2087.956 386.789)">
      <rect id="Rectangle_287" data-name="Rectangle 287" width="71.601" height="22.08" rx="5.719" transform="translate(0 13.532) rotate(-10.894)" fill="#2262c6"/>
      <circle id="Ellipse_50" data-name="Ellipse 50" cx="3.652" cy="3.652" r="3.652" transform="translate(13.125 19.278)" fill="#fff"/>
      <circle id="Ellipse_51" data-name="Ellipse 51" cx="3.652" cy="3.652" r="3.652" transform="translate(27.736 16.466)" fill="#fff"/>
      <circle id="Ellipse_52" data-name="Ellipse 52" cx="3.652" cy="3.652" r="3.652" transform="translate(42.347 13.654)" fill="#fff"/>
      <circle id="Ellipse_56" data-name="Ellipse 56" cx="3.652" cy="3.652" r="3.652" transform="translate(56.957 10.842)" fill="#fff"/>
    </g>
    <g id="Group_11485-2" data-name="Group 11485-2" transform="translate(2115.826 360.179)">
      <path id="Path_13566-2" data-name="Path 13566-2" d="M2157.877,373.167a9.265,9.265,0,1,1-7.347,10.85v0A9.265,9.265,0,0,1,2157.877,373.167Z" transform="translate(-2150.362 -372.998)" fill="#ffd034"/>
      <path id="Path_13565-2" data-name="Path 13565-2" d="M2159.873,385.865l3.16,1.972,3.322-7.317" transform="translate(-2153.39 -375.393)" fill="none" stroke="#fff" stroke-linecap="round" stroke-width="2.506"/>
    </g>
  </g>
</svg>
