<svg xmlns="http://www.w3.org/2000/svg" xmlns:xlink="http://www.w3.org/1999/xlink" width="66.109" height="63" viewBox="0 0 66.109 63"><defs><filter id="a" x="0" y="0" width="66.109" height="63" filterUnits="userSpaceOnUse"><feOffset dy="3" input="SourceAlpha"/><feGaussianBlur stdDeviation="3" result="b"/><feFlood flood-opacity="0.161"/><feComposite operator="in" in2="b"/><feComposite in="SourceGraphic"/></filter></defs><g transform="translate(9 6)"><g transform="matrix(1, 0, 0, 1, -9, -6)" filter="url(#a)"><path d="M45.872,45H2.238A2.238,2.238,0,0,1,0,42.762V2.552A2.553,2.553,0,0,1,2.553,0H45.692a2.418,2.418,0,0,1,2.418,2.418V42.762A2.238,2.238,0,0,1,45.871,45Zm0,0" transform="translate(9 6)" fill="#f4f4f4"/></g><path d="M475.447,0h-1.123a2.476,2.476,0,0,1,.11.733V44.267a2.476,2.476,0,0,1-.11.733h1.3a2.238,2.238,0,0,0,2.238-2.238V2.417A2.418,2.418,0,0,0,475.447,0Zm0,0" transform="translate(-429.755 0)" fill="#e8e8e8"/><path d="M0,8.66H48.108V2.305A2.305,2.305,0,0,0,45.8,0H2.305A2.305,2.305,0,0,0,0,2.305Zm0,0" transform="translate(0 0)" fill="#5994ce"/><path d="M475.559,0h-1.235a2.476,2.476,0,0,1,.11.733V8.66h3.43V2.305A2.305,2.305,0,0,0,475.559,0Zm0,0" transform="translate(-429.756 0)" fill="#4c7eb0"/><path d="M46.687,29.6a1.709,1.709,0,1,1-1.709-1.709A1.709,1.709,0,0,1,46.687,29.6Zm0,0" transform="translate(-39.204 -25.274)" fill="#fa5d72"/><path d="M108.25,29.6a1.709,1.709,0,1,1-1.709-1.709A1.709,1.709,0,0,1,108.25,29.6Zm0,0" transform="translate(-94.982 -25.274)" fill="#f6d867"/><path d="M169.813,29.6a1.709,1.709,0,1,1-1.709-1.709A1.709,1.709,0,0,1,169.813,29.6Zm0,0" transform="translate(-150.76 -25.274)" fill="#279463"/><path d="M0,92.164V126.2A2.305,2.305,0,0,0,2.305,128.5H15.635V92.164Zm0,0" transform="translate(0 -83.505)" fill="#a7c3de"/><path d="M151.5,92.164h1.4V128.5h-1.4Zm0,0" transform="translate(-137.265 -83.505)" fill="#93acc4"/><path d="M209.181,139.029H199.053a.744.744,0,0,1-.744-.744v-7.591a.744.744,0,0,1,.744-.744h10.127a.744.744,0,0,1,.744.744v7.591A.744.744,0,0,1,209.181,139.029Zm0,0" transform="translate(-179.676 -117.739)" fill="#fa5d72"/><path d="M297.056,129.949H295.3a.838.838,0,0,1,.105.407v8.266a.837.837,0,0,1-.105.407h1.758a.744.744,0,0,0,.744-.744v-7.591A.744.744,0,0,0,297.056,129.949Zm0,0" transform="translate(-267.551 -117.739)" fill="#e35567"/><path d="M368.729,139.029h-9.865a.875.875,0,0,1-.875-.875v-7.329a.875.875,0,0,1,.875-.875h9.865a.876.876,0,0,1,.875.875v7.329A.875.875,0,0,1,368.729,139.029Zm0,0" transform="translate(-324.351 -117.739)" fill="#fa5d72"/><path d="M456.66,129.949h-1.621a.981.981,0,0,1,.176.562v7.956a.982.982,0,0,1-.176.562h1.621a.876.876,0,0,0,.875-.876v-7.329A.875.875,0,0,0,456.66,129.949Zm0,0" transform="translate(-412.283 -117.739)" fill="#e35567"/><path d="M224.184,269.408H199.053a.744.744,0,0,1-.744-.744v-8.385a.744.744,0,0,1,.744-.744h25.131a.744.744,0,0,1,.744.744v8.385A.744.744,0,0,1,224.184,269.408Zm0,0" transform="translate(-179.676 -235.149)" fill="#fa5d72"/><path d="M457.57,259.535H455.9a.845.845,0,0,1,.058.307v9.26a.852.852,0,0,1-.058.307h1.672a.744.744,0,0,0,.744-.744v-8.385A.744.744,0,0,0,457.57,259.535Zm0,0" transform="translate(-413.062 -235.149)" fill="#e35567"/><path d="M224.235,404.647H199.053a.744.744,0,0,1-.744-.744v-1.686a.744.744,0,0,1,.744-.744h25.182a.744.744,0,0,1,.744.744V403.9A.744.744,0,0,1,224.235,404.647Zm0,0" transform="translate(-179.676 -363.75)" fill="#fba826"/><path d="M452.519,401.473h-2.227a.767.767,0,0,1,.767.767v1.641a.767.767,0,0,1-.767.767h2.227a.767.767,0,0,0,.767-.767V402.24A.767.767,0,0,0,452.519,401.473Zm0,0" transform="translate(-407.982 -363.75)" fill="#e09721"/><g transform="translate(2.3 3.604)"><path d="M281.485,39.081a.726.726,0,0,0-.726-.726H263.077a.726.726,0,0,0,0,1.452h17.682A.726.726,0,0,0,281.485,39.081Zm0,0" transform="translate(-240 -38.355)" fill="#495663"/><path d="M25.2,129.136h9.583a.726.726,0,1,0,0-1.452H25.2a.726.726,0,1,0,0,1.452Zm0,0" transform="translate(-24.477 -119.29)" fill="#495663"/><path d="M25.2,177.468h9.583a.726.726,0,1,0,0-1.452H25.2a.726.726,0,1,0,0,1.452Zm0,0" transform="translate(-24.477 -163.081)" fill="#495663"/><path d="M25.2,225.8h9.583a.726.726,0,1,0,0-1.452H25.2a.726.726,0,1,0,0,1.452Zm0,0" transform="translate(-24.477 -206.872)" fill="#495663"/><path d="M25.2,274.131h9.583a.726.726,0,1,0,0-1.452H25.2a.726.726,0,1,0,0,1.452Zm0,0" transform="translate(-24.477 -250.662)" fill="#495663"/></g></g></svg>